<svg width="89" height="58" viewBox="0 0 89 58" fill="none" xmlns="http://www.w3.org/2000/svg">
<path d="M27.3438 3.8125C27.3438 3.9375 27.2812 4.04167 27.1562 4.125C27.0521 4.20833 26.9271 4.29167 26.7812 4.375C26.6562 4.45833 26.5208 4.55208 26.375 4.65625C26.25 4.76042 26.1667 4.88542 26.125 5.03125H25.8438C25.7188 5.03125 25.6562 5.07292 25.6562 5.15625H25.5625C25.375 5.15625 25.25 5.10417 25.1875 5C25.125 4.875 24.9896 4.8125 24.7812 4.8125C24.2604 4.8125 23.7396 4.82292 23.2188 4.84375C22.7188 4.84375 22.2083 4.85417 21.6875 4.875C20.25 4.875 18.8333 4.92708 17.4375 5.03125C16.0625 5.11458 14.6979 5.40625 13.3438 5.90625C13.3021 5.92708 13.25 5.9375 13.1875 5.9375C13.0833 5.9375 13.0208 5.89583 13 5.8125C13 5.72917 12.9479 5.6875 12.8438 5.6875C12.5521 5.6875 12.2812 5.71875 12.0312 5.78125C11.7812 5.84375 11.5104 5.88542 11.2188 5.90625C10.8854 6.19792 10.5 6.4375 10.0625 6.625C9.64583 6.8125 9.20833 7 8.75 7.1875C8.3125 7.35417 7.88542 7.54167 7.46875 7.75C7.05208 7.9375 6.6875 8.1875 6.375 8.5C6.41667 8.75 6.44792 9 6.46875 9.25C6.51042 9.47917 6.53125 9.70833 6.53125 9.9375C6.53125 10.8333 6.44792 11.7188 6.28125 12.5938C6.11458 13.4479 6.03125 14.3125 6.03125 15.1875V15.6562C6.03125 15.8021 6.04167 15.9583 6.0625 16.125C6.10417 16.2292 6.17708 16.3021 6.28125 16.3438C6.40625 16.3646 6.51042 16.4062 6.59375 16.4688C6.86458 16.2812 7.13542 16.1354 7.40625 16.0312C7.69792 15.9062 7.98958 15.7917 8.28125 15.6875C8.59375 15.5625 8.88542 15.4479 9.15625 15.3438C9.44792 15.2188 9.72917 15.0729 10 14.9062H10.875C11.1042 14.7396 11.375 14.6146 11.6875 14.5312C12 14.4479 12.2083 14.2604 12.3125 13.9688C12.3542 14.0104 12.3958 14.0312 12.4375 14.0312H12.5625C12.8125 14.0312 13.0625 13.9792 13.3125 13.875C13.5833 13.7708 13.8542 13.6667 14.125 13.5625C14.3958 13.4375 14.6667 13.3229 14.9375 13.2188C15.2083 13.1146 15.4896 13.0625 15.7812 13.0625C15.8438 13.0625 15.8958 13.0729 15.9375 13.0938C16 13.0938 16.0625 13.0938 16.125 13.0938C16.25 12.8854 16.4271 12.7292 16.6562 12.625C16.8854 12.5 17.125 12.3958 17.375 12.3125C17.625 12.2292 17.875 12.1458 18.125 12.0625C18.3958 11.9792 18.625 11.875 18.8125 11.75H18.9375C19.0625 11.75 19.1562 11.7812 19.2188 11.8438C19.3021 11.8854 19.3958 11.9271 19.5 11.9688C20.0833 11.5938 20.6771 11.4062 21.2812 11.4062C21.9062 11.3854 22.5521 11.3438 23.2188 11.2812C23.3646 11.5312 23.4896 11.7396 23.5938 11.9062C23.7188 12.0521 23.7812 12.2708 23.7812 12.5625C23.7812 12.7083 23.7708 12.8125 23.75 12.875C23.5208 12.9583 23.3438 13.0312 23.2188 13.0938L22.875 13.2812C22.7708 13.3229 22.6458 13.3646 22.5 13.4062C22.3542 13.4271 22.1458 13.4375 21.875 13.4375C21.7083 13.4375 21.6354 13.4896 21.6562 13.5938C21.6771 13.6771 21.625 13.7292 21.5 13.75C21.2083 13.8542 20.9167 13.9375 20.625 14C20.3333 14.0625 20.0417 14.1458 19.75 14.25C19.1458 14.4375 18.5417 14.6458 17.9375 14.875C17.3542 15.0833 16.75 15.25 16.125 15.375C15.6042 15.7917 15.0417 16.1354 14.4375 16.4062C13.8333 16.6562 13.2083 16.8646 12.5625 17.0312C11.875 17.5312 11.1979 18 10.5312 18.4375C9.86458 18.8542 9.11458 19.2083 8.28125 19.5C8.17708 19.6042 8.05208 19.6979 7.90625 19.7812C7.76042 19.8646 7.66667 19.9896 7.625 20.1562C7.58333 20.1562 7.53125 20.1562 7.46875 20.1562C7.42708 20.1354 7.375 20.125 7.3125 20.125C7.02083 20.125 6.79167 20.1979 6.625 20.3438C6.47917 20.4688 6.29167 20.5521 6.0625 20.5938C5.95833 20.9062 5.90625 21.1771 5.90625 21.4062C5.90625 21.6979 5.95833 21.9583 6.0625 22.1875C6.16667 22.4167 6.29167 22.6354 6.4375 22.8438C6.60417 23.0521 6.77083 23.2604 6.9375 23.4688C7.125 23.6562 7.28125 23.8646 7.40625 24.0938C7.36458 24.3438 7.28125 24.5417 7.15625 24.6875C7.05208 24.8542 6.92708 25 6.78125 25.125C6.63542 25.2708 6.48958 25.4167 6.34375 25.5625C6.21875 25.7083 6.125 25.8958 6.0625 26.125C5.6875 26.1875 5.32292 26.2188 4.96875 26.2188C4.73958 26.2188 4.5 26.1875 4.25 26.125C4.02083 26.0833 3.80208 26 3.59375 25.875C3.26042 25.4167 3.02083 24.9271 2.875 24.4062C2.75 23.8854 2.57292 23.3646 2.34375 22.8438L2.375 22.625C2.375 22.1667 2.29167 21.7708 2.125 21.4375C1.97917 21.0833 1.75 20.7292 1.4375 20.375C1.45833 20.3333 1.46875 20.2604 1.46875 20.1562C1.46875 19.8854 1.38542 19.6354 1.21875 19.4062C1.26042 18.9271 1.38542 18.5521 1.59375 18.2812C1.82292 18.0104 2.07292 17.7083 2.34375 17.375V17C2.34375 16.1042 2.41667 15.2292 2.5625 14.375C2.72917 13.5 2.8125 12.625 2.8125 11.75C2.8125 11.2083 2.77083 10.7292 2.6875 10.3125C2.625 10.2917 2.54167 10.2812 2.4375 10.2812C2.33333 10.2812 2.25 10.3125 2.1875 10.375C2.125 10.4167 2.07292 10.4688 2.03125 10.5312C1.98958 10.5938 1.9375 10.6562 1.875 10.7188C1.83333 10.7812 1.76042 10.8229 1.65625 10.8438C1.30208 10.7812 1.07292 10.6146 0.96875 10.3438C0.864583 10.0729 0.8125 9.77083 0.8125 9.4375C0.8125 9.25 0.822917 9.0625 0.84375 8.875C0.864583 8.6875 0.885417 8.48958 0.90625 8.28125C1.69792 7.40625 2.64583 6.59375 3.75 5.84375C4.85417 5.09375 5.94792 4.48958 7.03125 4.03125C7.09375 4.01042 7.16667 4 7.25 4C7.33333 4 7.40625 4.02083 7.46875 4.0625C7.53125 4.08333 7.60417 4.09375 7.6875 4.09375C7.75 4.09375 7.80208 4.07292 7.84375 4.03125C8.05208 4.03125 8.19792 3.96875 8.28125 3.84375C8.36458 3.71875 8.47917 3.59375 8.625 3.46875C8.77083 3.57292 8.89583 3.625 9 3.625C9.20833 3.625 9.41667 3.53125 9.625 3.34375C9.83333 3.15625 10.0625 3.04167 10.3125 3C11.2708 2.83333 12.2083 2.69792 13.125 2.59375C14.0625 2.48958 14.9896 2.25 15.9062 1.875C16.1146 1.97917 16.3229 2.04167 16.5312 2.0625C16.7396 2.08333 16.9479 2.09375 17.1562 2.09375C17.3854 2.09375 17.6354 2.07292 17.9062 2.03125C18.1979 1.96875 18.4271 1.84375 18.5938 1.65625C19.2604 1.73958 19.9688 1.77083 20.7188 1.75C21.4896 1.72917 22.25 1.73958 23 1.78125C23.7708 1.82292 24.5104 1.92708 25.2188 2.09375C25.9271 2.26042 26.5521 2.5625 27.0938 3C27.1354 3.14583 27.1875 3.28125 27.25 3.40625C27.3125 3.53125 27.3438 3.66667 27.3438 3.8125ZM35.25 19.7188C35.1458 19.8854 35.0208 20.0417 34.875 20.1875C34.7292 20.3125 34.5938 20.4479 34.4688 20.5938C34.3229 20.6562 34.1562 20.6875 33.9688 20.6875C33.8021 20.6875 33.6354 20.6875 33.4688 20.6875C33.3229 20.6667 33.1771 20.6667 33.0312 20.6875C32.9062 20.6875 32.8021 20.7292 32.7188 20.8125C32.5521 20.7708 32.4271 20.6979 32.3438 20.5938C32.2604 20.4688 32.1146 20.3958 31.9062 20.375C31.8229 20.3542 31.7396 20.3542 31.6562 20.375C31.3438 20.0208 31.0521 19.6458 30.7812 19.25C30.5312 18.8542 30.2917 18.4792 30.0625 18.125C30.0417 17.3542 29.9792 16.5729 29.875 15.7812C29.8542 15.5938 29.8229 15.4062 29.7812 15.2188C29.7396 15.0312 29.7083 14.8542 29.6875 14.6875C29.6875 14.4792 29.6979 14.2812 29.7188 14.0938C29.7604 13.8854 29.7917 13.6979 29.8125 13.5312C29.8958 12.9271 29.9896 12.3333 30.0938 11.75C30.1979 11.1667 30.2917 10.5729 30.375 9.96875C30.4583 9.42708 30.5 8.86458 30.5 8.28125C30.5 7.67708 30.4062 7.11458 30.2188 6.59375L30.1875 6.4375C30.2292 6.27083 30.2708 6.13542 30.3125 6.03125C30.375 5.90625 30.4167 5.77083 30.4375 5.625C30.4792 5.39583 30.4271 5.22917 30.2812 5.125C30.3438 4.95833 30.4479 4.85417 30.5938 4.8125C30.7396 4.75 30.8229 4.625 30.8438 4.4375C30.8646 4.35417 30.8646 4.27083 30.8438 4.1875C31.0104 4.125 31.1771 4.07292 31.3438 4.03125C31.5312 3.96875 31.7083 3.95833 31.875 4C32.1458 4.04167 32.3854 4.13542 32.5938 4.28125C32.8021 4.40625 33 4.55208 33.1875 4.71875C33.5208 5.71875 33.6562 6.78125 33.5938 7.90625C33.5312 9.01042 33.4271 10.125 33.2812 11.25C33.1354 12.375 33.0417 13.4792 33 14.5625C32.9583 15.625 33.125 16.6146 33.5 17.5312L33.5625 17.5625C33.6667 17.5833 33.75 17.5521 33.8125 17.4688C33.875 17.3646 33.9583 17.3229 34.0625 17.3438C34.1458 17.3854 34.1979 17.4062 34.2188 17.4062C34.3021 17.8229 34.4375 18.2188 34.625 18.5938C34.8125 18.9688 35.0208 19.3438 35.25 19.7188ZM61.7812 3.46875C61.7396 3.71875 61.6771 3.9375 61.5938 4.125C61.5312 4.29167 61.5208 4.52083 61.5625 4.8125C61.3542 4.83333 61.1875 4.90625 61.0625 5.03125C60.9583 5.13542 60.8646 5.26042 60.7812 5.40625C60.7188 5.55208 60.6458 5.70833 60.5625 5.875C60.5 6.02083 60.4167 6.15625 60.3125 6.28125C60.4792 7.03125 60.5729 7.79167 60.5938 8.5625C60.6146 9.33333 60.6667 10.0938 60.75 10.8438C60.8542 11.8021 61.0104 12.75 61.2188 13.6875C61.4479 14.6042 61.5625 15.5417 61.5625 16.5C61.5625 16.7917 61.5521 17.0625 61.5312 17.3125C61.5312 17.5625 61.5312 17.8229 61.5312 18.0938C61.5312 18.2604 61.5312 18.4375 61.5312 18.625C61.5521 18.7917 61.5625 18.9583 61.5625 19.125C61.5625 19.7292 61.4792 20.3333 61.3125 20.9375C61.1667 21.5417 61.0521 22.1458 60.9688 22.75C60.7188 22.9792 60.5 23.2292 60.3125 23.5C60.1458 23.7708 59.9688 24.0208 59.7812 24.25C59.5938 24.4792 59.375 24.6771 59.125 24.8438C58.875 25.0312 58.5625 25.1562 58.1875 25.2188C58.125 25.4271 58 25.5833 57.8125 25.6875C57.6458 25.7917 57.5 25.9375 57.375 26.125H57.3125C56.7917 26.125 56.3438 26.0521 55.9688 25.9062C55.5938 25.7604 55.2396 25.5938 54.9062 25.4062C54.5938 25.2188 54.2708 25.0208 53.9375 24.8125C53.6042 24.6042 53.2188 24.4375 52.7812 24.3125C52.1979 23.8333 51.6667 23.3125 51.1875 22.75C50.7083 22.1667 50.1667 21.6458 49.5625 21.1875C49.4167 20.7708 49.2188 20.4271 48.9688 20.1562C48.7396 19.8854 48.5104 19.5729 48.2812 19.2188C48.1771 19.0729 48.0938 18.9375 48.0312 18.8125C47.9896 18.6875 47.9271 18.5417 47.8438 18.375C47.7812 18.2083 47.6771 18.0938 47.5312 18.0312C47.4062 17.9688 47.2917 17.8958 47.1875 17.8125C47.0208 17.1667 46.7812 16.5729 46.4688 16.0312C46.1562 15.4896 45.7917 14.9688 45.375 14.4688C45.25 14.6979 45.1458 14.9479 45.0625 15.2188C45 15.4688 44.9375 15.7292 44.875 16C44.8125 16.25 44.7292 16.5104 44.625 16.7812C44.5417 17.0312 44.4271 17.2604 44.2812 17.4688V17.5625C44.2812 17.6667 44.3229 17.7292 44.4062 17.75C44.4896 17.7708 44.5312 17.8333 44.5312 17.9375C44.5312 17.9583 44.5208 17.9792 44.5 18C44.5 18.0208 44.5 18.0417 44.5 18.0625C44.3958 18.1458 44.3125 18.25 44.25 18.375C44.2083 18.5 44.1042 18.5729 43.9375 18.5938C43.9583 18.6979 43.9688 18.8021 43.9688 18.9062V19.1875C43.9688 19.7917 43.8958 20.3958 43.75 21C43.625 21.6042 43.5625 22.2188 43.5625 22.8438V23.25C43.5625 23.3958 43.5729 23.5312 43.5938 23.6562C43.6354 23.7812 43.6979 23.9062 43.7812 24.0312C43.8646 24.1562 43.9062 24.2708 43.9062 24.375C43.9062 24.5208 43.8438 24.6562 43.7188 24.7812C43.8646 24.8854 44.0312 25 44.2188 25.125C44.4062 25.25 44.5729 25.3854 44.7188 25.5312C44.8854 25.6979 45.0208 25.8646 45.125 26.0312C45.2292 26.2188 45.2812 26.4167 45.2812 26.625C45.2812 26.9792 45.1667 27.2292 44.9375 27.375C44.7083 27.5208 44.4271 27.6354 44.0938 27.7188C43.7812 27.8021 43.4479 27.875 43.0938 27.9375C42.7604 28.0208 42.4792 28.1562 42.25 28.3438H42.1562C41.9062 28.3438 41.7188 28.2708 41.5938 28.125C41.4688 27.9792 41.2812 27.9062 41.0312 27.9062C40.6354 27.2604 40.3646 26.5312 40.2188 25.7188C40.0729 24.9271 40 24.1667 40 23.4375C40 22.5417 40.0833 21.6458 40.25 20.75C40.3958 19.8542 40.5833 18.9688 40.8125 18.0938C41.0208 17.2188 41.25 16.3542 41.5 15.5C41.7708 14.625 42.0208 13.75 42.25 12.875L42.2812 12.7812C42.2812 12.6771 42.25 12.6042 42.1875 12.5625C42.1458 12.5208 42.125 12.4583 42.125 12.375C42.125 12.3333 42.1354 12.3125 42.1562 12.3125C42.2188 12.1042 42.2812 11.9062 42.3438 11.7188C42.4271 11.5312 42.4896 11.3229 42.5312 11.0938C42.6562 10.5104 42.7396 9.91667 42.7812 9.3125C42.8438 8.6875 42.875 8.07292 42.875 7.46875C42.8958 6.86458 42.9167 6.26042 42.9375 5.65625C42.9792 5.03125 43.0521 4.41667 43.1562 3.8125C43.3229 3.64583 43.4792 3.46875 43.625 3.28125C43.7708 3.09375 43.9583 2.92708 44.1875 2.78125C44.6042 2.80208 45.0208 2.86458 45.4375 2.96875C45.8542 3.07292 46.25 3.23958 46.625 3.46875C46.875 4.36458 47.0417 5.26042 47.125 6.15625C47.2292 7.05208 47.3958 7.94792 47.625 8.84375V8.9375C47.625 9.04167 47.6771 9.09375 47.7812 9.09375C47.9062 9.07292 48 9.10417 48.0625 9.1875C48.0208 9.25 47.9896 9.32292 47.9688 9.40625C47.9688 9.48958 47.9688 9.57292 47.9688 9.65625V10.1875C48.0104 10.3542 48.0625 10.5312 48.125 10.7188C48.1875 10.9062 48.3229 11.0208 48.5312 11.0625C48.6354 11.7292 48.7917 12.3438 49 12.9062C49.2083 13.4688 49.4479 14.0104 49.7188 14.5312C49.9896 15.0521 50.2812 15.5729 50.5938 16.0938C50.9062 16.5938 51.2292 17.125 51.5625 17.6875C52.0833 18.0833 52.5312 18.5417 52.9062 19.0625C53.2812 19.5625 53.6562 20.0521 54.0312 20.5312C54.4271 20.9896 54.8646 21.3958 55.3438 21.75C55.8438 22.1042 56.4896 22.3229 57.2812 22.4062C57.3854 22.3229 57.4583 22.2083 57.5 22.0625L57.6562 21.625C57.7188 21.4792 57.7812 21.3542 57.8438 21.25C57.9271 21.125 58.0417 21.0312 58.1875 20.9688C58.2292 20.3854 58.2708 19.7917 58.3125 19.1875C58.375 18.5833 58.5104 18.0104 58.7188 17.4688C58.6146 17.2812 58.5625 17.0521 58.5625 16.7812C58.5625 16.5729 58.5729 16.375 58.5938 16.1875C58.6354 16 58.6562 15.8125 58.6562 15.625C58.6562 15.2292 58.5729 14.9062 58.4062 14.6562C58.4062 14.5104 58.4167 14.3646 58.4375 14.2188C58.4583 14.0521 58.5208 13.8958 58.625 13.75C58.4583 13.3333 58.3229 12.8958 58.2188 12.4375C58.1354 11.9792 58.0938 11.5104 58.0938 11.0312C58.0938 10.7604 58.125 10.4792 58.1875 10.1875C58.0625 9.875 57.9792 9.51042 57.9375 9.09375L57.8125 7.8125C57.7708 7.375 57.7083 6.96875 57.625 6.59375C57.5417 6.21875 57.3854 5.91667 57.1562 5.6875C57.2812 5.5 57.3438 5.28125 57.3438 5.03125C57.3438 4.61458 57.2812 4.21875 57.1562 3.84375C57.0312 3.46875 56.9688 3.07292 56.9688 2.65625C56.9688 2.36458 57.0312 2.07292 57.1562 1.78125C57.6146 1.80208 58.0625 1.85417 58.5 1.9375C58.9583 2 59.4062 2.03125 59.8438 2.03125C59.9688 2.19792 60.1146 2.33333 60.2812 2.4375C60.4479 2.54167 60.625 2.64583 60.8125 2.75C61 2.83333 61.1771 2.92708 61.3438 3.03125C61.5312 3.13542 61.6771 3.28125 61.7812 3.46875ZM88.9062 8.59375C88.9062 8.80208 88.8333 8.9375 88.6875 9C88.5417 9.0625 88.4688 9.1875 88.4688 9.375C88.4688 9.4375 88.4896 9.48958 88.5312 9.53125C88.5729 9.57292 88.5938 9.63542 88.5938 9.71875V9.84375C88.3438 11.0521 87.9792 12.1042 87.5 13C87.0417 13.8958 86.5 14.7188 85.875 15.4688C85.25 16.2188 84.5417 16.9271 83.75 17.5938C82.9792 18.2604 82.1458 18.9583 81.25 19.6875C81 19.8958 80.7396 20.1042 80.4688 20.3125C80.2188 20.5208 79.9792 20.7396 79.75 20.9688L79.0625 21.625C79.0417 21.6458 78.9271 21.6979 78.7188 21.7812C78.5104 21.8438 78.3854 21.8854 78.3438 21.9062C78.0521 22.0312 77.7396 22.1771 77.4062 22.3438C77.0938 22.5104 76.8229 22.7188 76.5938 22.9688C76.1771 22.9688 75.8229 23.0312 75.5312 23.1562C75.2396 23.2812 74.9167 23.4479 74.5625 23.6562C74.4583 23.6562 74.3646 23.6354 74.2812 23.5938C74.2188 23.5521 74.1458 23.5104 74.0625 23.4688C73.9792 23.4271 73.8854 23.4062 73.7812 23.4062C73.6979 23.3854 73.5833 23.3958 73.4375 23.4375C73.1875 23.0208 72.9167 22.6667 72.625 22.375C72.3333 22.0833 71.9375 21.9062 71.4375 21.8438C71.375 21.4896 71.2292 21.2188 71 21.0312C70.7708 20.8229 70.5417 20.6042 70.3125 20.375C70.2708 20.25 70.2396 20.1042 70.2188 19.9375C70.1979 19.7708 70.1562 19.6146 70.0938 19.4688C70.0312 19.3229 69.9479 19.1979 69.8438 19.0938C69.7396 18.9896 69.5938 18.9375 69.4062 18.9375C69.3854 18.8125 69.4375 18.75 69.5625 18.75C69.6875 18.75 69.75 18.6979 69.75 18.5938C69.75 18.4688 69.7292 18.3438 69.6875 18.2188C69.6458 18.0938 69.625 17.9583 69.625 17.8125C69.625 17.7083 69.6354 17.6146 69.6562 17.5312C69.6771 17.4479 69.7083 17.3542 69.75 17.25C69.6875 16.6875 69.6562 16.1146 69.6562 15.5312C69.6562 14.4062 69.7292 13.3021 69.875 12.2188C70.0417 11.1146 70.125 10 70.125 8.875C70.125 8.375 70.0938 7.875 70.0312 7.375C69.9896 6.875 69.8958 6.38542 69.75 5.90625C69.2708 6.01042 68.7917 6.13542 68.3125 6.28125C67.8333 6.40625 67.3854 6.58333 66.9688 6.8125C66.7396 6.66667 66.5 6.58333 66.25 6.5625C65.9792 6.52083 65.7188 6.45833 65.4688 6.375C65.3229 6.08333 65.25 5.78125 65.25 5.46875C65.25 5.17708 65.3021 4.89583 65.4062 4.625L65.7188 3.8125C66.2188 3.70833 66.7188 3.55208 67.2188 3.34375C67.6979 3.13542 68.1875 2.94792 68.6875 2.78125C68.8542 2.73958 69.0625 2.6875 69.3125 2.625C69.5833 2.5625 69.7708 2.51042 69.875 2.46875C70.0208 2.40625 70.1146 2.29167 70.1562 2.125C70.2188 1.9375 70.3021 1.78125 70.4062 1.65625H70.9375C71.0625 1.65625 71.1979 1.66667 71.3438 1.6875C71.4896 1.6875 71.625 1.71875 71.75 1.78125C72.5 1.59375 73.25 1.47917 74 1.4375C74.75 1.375 75.5208 1.29167 76.3125 1.1875C76.3958 1.1875 76.5208 1.17708 76.6875 1.15625L77.2188 1.0625C77.4062 1.02083 77.5729 0.989583 77.7188 0.96875C77.8854 0.927083 78 0.90625 78.0625 0.90625C78.125 0.90625 78.1562 0.9375 78.1562 1H78.6875C79.5833 1 80.4583 1.11458 81.3125 1.34375L83.875 2.03125C84.2292 2.32292 84.5833 2.60417 84.9375 2.875C85.2917 3.14583 85.6875 3.38542 86.125 3.59375C86.2292 3.92708 86.3854 4.19792 86.5938 4.40625C86.8229 4.59375 87.0729 4.80208 87.3438 5.03125C87.4479 5.30208 87.5833 5.59375 87.75 5.90625C87.9375 6.19792 88.1146 6.5 88.2812 6.8125C88.4479 7.125 88.5938 7.4375 88.7188 7.75C88.8438 8.04167 88.9062 8.32292 88.9062 8.59375ZM86 9.0625C85.7708 8.58333 85.5521 8.08333 85.3438 7.5625C85.1354 7.04167 84.875 6.57292 84.5625 6.15625C84.1875 6.05208 83.8021 5.92708 83.4062 5.78125C83.0312 5.61458 82.7708 5.33333 82.625 4.9375C82.5833 4.95833 82.5104 4.96875 82.4062 4.96875C82.2188 4.96875 82.0521 4.89583 81.9062 4.75C81.7604 4.60417 81.5938 4.51042 81.4062 4.46875C81.2396 4.44792 81.0104 4.41667 80.7188 4.375C80.4479 4.33333 80.1562 4.30208 79.8438 4.28125C79.5312 4.26042 79.2188 4.23958 78.9062 4.21875C78.6146 4.19792 78.3854 4.1875 78.2188 4.1875C78.0521 4.1875 77.875 4.19792 77.6875 4.21875C77.5208 4.21875 77.3438 4.22917 77.1562 4.25C76.9896 4.25 76.8854 4.28125 76.8438 4.34375C76.8021 4.38542 76.7188 4.42708 76.5938 4.46875C76.4896 4.42708 76.375 4.40625 76.25 4.40625H75.875C75.4375 4.40625 75 4.47917 74.5625 4.625C74.1458 4.75 73.7292 4.92708 73.3125 5.15625V5.28125C73.3125 5.44792 73.3854 5.54167 73.5312 5.5625C73.6771 5.58333 73.7604 5.66667 73.7812 5.8125C73.6771 5.8125 73.5938 5.82292 73.5312 5.84375C73.4688 5.84375 73.4375 5.91667 73.4375 6.0625C73.4375 6.27083 73.4583 6.5 73.5 6.75C73.5625 7 73.5938 7.25 73.5938 7.5C73.5938 7.6875 73.5729 7.90625 73.5312 8.15625C73.4896 8.40625 73.3854 8.60417 73.2188 8.75C73.4271 8.9375 73.5312 9.1875 73.5312 9.5C73.5312 9.70833 73.4896 9.92708 73.4062 10.1562C73.3229 10.3854 73.2188 10.5833 73.0938 10.75C73.0521 11.625 72.9688 12.5104 72.8438 13.4062C72.7188 14.3021 72.6562 15.1875 72.6562 16.0625C72.6562 16.5 72.6771 16.9271 72.7188 17.3438C72.7812 17.7604 72.875 18.1771 73 18.5938C73.2292 18.8229 73.4688 19 73.7188 19.125C73.9896 19.25 74.2708 19.375 74.5625 19.5V19.5938C74.5625 19.6562 74.5208 19.7188 74.4375 19.7812C74.3542 19.8438 74.3125 19.9271 74.3125 20.0312C74.3125 20.1146 74.3542 20.1562 74.4375 20.1562C75.3125 19.9062 76.1354 19.6042 76.9062 19.25C77.6771 18.8958 78.3958 18.4167 79.0625 17.8125C79.125 17.75 79.1875 17.7188 79.25 17.7188C79.2917 17.7188 79.3438 17.7292 79.4062 17.75C79.4896 17.7708 79.5625 17.7917 79.625 17.8125L79.5938 17.6875C79.5938 17.5625 79.625 17.4479 79.6875 17.3438C79.7708 17.2396 79.8646 17.1458 79.9688 17.0625L80.2812 16.7812C80.3854 16.6771 80.4688 16.5729 80.5312 16.4688C80.6979 16.4271 80.8125 16.3438 80.875 16.2188C80.9583 16.0938 81.0938 16.0312 81.2812 16.0312C81.3229 15.8021 81.4375 15.6354 81.625 15.5312C81.8125 15.4062 81.9271 15.2292 81.9688 15C82.3854 14.7708 82.75 14.4896 83.0625 14.1562C83.3958 13.8229 83.6979 13.4688 83.9688 13.0938C84.2604 12.7188 84.5312 12.3333 84.7812 11.9375C85.0312 11.5208 85.2917 11.125 85.5625 10.75V10.625C85.5625 10.2917 85.6146 10.0208 85.7188 9.8125C85.8438 9.60417 85.9375 9.35417 86 9.0625ZM18.4969 48.048C18.4969 48.048 18.8809 47.952 19.6489 47.76C20.3689 47.76 20.7289 48.12 20.7289 48.84C20.7289 49.368 20.3689 49.752 19.6489 49.992C19.2169 50.136 18.7849 50.208 18.3529 50.208C17.9449 50.208 17.5489 50.112 17.1649 49.92C16.7809 49.728 16.4809 49.44 16.2649 49.056C15.9049 48.432 15.6409 47.76 15.4729 47.04L15.3289 46.428C14.9209 47.124 13.9249 47.94 12.3409 48.876C10.7809 49.812 9.11288 50.28 7.33688 50.28C6.37688 50.28 5.53688 49.92 4.81688 49.2C4.09688 48.48 3.73688 47.64 3.73688 46.68C3.73688 44.352 4.69688 42.336 6.61688 40.632C8.53688 38.904 10.4809 38.04 12.4489 38.04C13.5289 38.04 14.4529 38.244 15.2209 38.652C16.0129 39.036 16.4089 39.432 16.4089 39.84C16.4089 40.56 16.0489 40.92 15.3289 40.92C15.1849 40.92 14.8369 40.8 14.2849 40.56C13.7329 40.32 13.1209 40.2 12.4489 40.2C11.1529 40.2 9.73688 40.836 8.20088 42.108C6.66488 43.356 5.89688 44.88 5.89688 46.68C5.89688 47.04 6.04088 47.376 6.32888 47.688C6.64088 47.976 6.97688 48.12 7.33688 48.12C8.75288 48.12 10.0729 47.748 11.2969 47.004C12.5209 46.236 13.3009 45.612 13.6369 45.132C13.9729 44.628 14.2489 44.172 14.4649 43.764C14.6809 43.356 14.8369 43.092 14.9329 42.972C15.0529 42.828 15.2929 42.756 15.6529 42.756C16.0129 42.756 16.2889 42.888 16.4809 43.152C16.6729 43.416 16.8529 43.836 17.0209 44.412C17.1889 44.964 17.3569 45.588 17.5249 46.284C17.6929 46.98 17.8369 47.448 17.9569 47.688C18.1009 47.928 18.2809 48.048 18.4969 48.048Z" fill="#8D8BA7"/>
<path d="M31.8234 33.216H39.4194V36.348C40.5714 33.924 42.5274 32.712 45.2874 32.712C46.8954 32.712 48.3714 33.12 49.7154 33.936C51.0834 34.728 52.1514 35.832 52.9194 37.248C53.7114 38.664 54.1074 40.248 54.1074 42C54.1074 43.752 53.6994 45.336 52.8834 46.752C52.0914 48.168 51.0114 49.284 49.6434 50.1C48.2994 50.892 46.8594 51.288 45.3234 51.288C42.5874 51.288 40.6194 50.076 39.4194 47.652V55.68L31.8234 57.12V33.216ZM43.0194 45.6C44.0034 45.6 44.8434 45.24 45.5394 44.52C46.2354 43.8 46.5834 42.96 46.5834 42C46.5834 40.992 46.2234 40.14 45.5034 39.444C44.8074 38.748 43.9794 38.4 43.0194 38.4C42.0354 38.4 41.1954 38.748 40.4994 39.444C39.8034 40.116 39.4554 40.92 39.4554 41.856V42C39.4554 43.008 39.8034 43.86 40.4994 44.556C41.2194 45.252 42.0594 45.6 43.0194 45.6ZM65.1787 51.288C63.1867 51.288 61.4107 50.892 59.8507 50.1C58.3147 49.284 57.1147 48.18 56.2507 46.788C55.3867 45.372 54.9547 43.776 54.9547 42C54.9547 40.176 55.3987 38.556 56.2867 37.14C57.1747 35.724 58.3747 34.632 59.8867 33.864C61.3987 33.096 63.0787 32.712 64.9267 32.712C66.7027 32.712 68.2147 33.108 69.4627 33.9C70.7347 34.668 71.6827 35.724 72.3067 37.068C72.9307 38.388 73.2427 39.876 73.2427 41.532C73.2427 41.964 73.2187 42.276 73.1707 42.468L62.3707 43.872C62.6587 44.712 63.1267 45.324 63.7747 45.708C64.4227 46.068 65.2747 46.248 66.3307 46.248C67.9627 46.248 69.7267 45.828 71.6227 44.988L72.5227 49.812C70.2907 50.796 67.8427 51.288 65.1787 51.288ZM67.6627 39.336C67.2787 37.824 66.3667 37.068 64.9267 37.068C64.0627 37.068 63.3787 37.392 62.8747 38.04C62.3707 38.688 62.1067 39.528 62.0827 40.56L67.6627 39.336ZM82.7426 51.288C80.6306 51.288 78.9866 50.688 77.8106 49.488C76.6346 48.264 76.0466 46.584 76.0466 44.448V37.428H73.7426V32.964H76.5866L79.9346 26.16H83.5706V32.964H87.7466V37.428H83.5706V43.548C83.5706 44.148 83.7626 44.616 84.1466 44.952C84.5306 45.288 85.0706 45.456 85.7666 45.456C86.4146 45.456 87.0026 45.312 87.5306 45.024L87.8186 50.064C87.2186 50.424 86.4386 50.724 85.4786 50.964C84.5426 51.18 83.6306 51.288 82.7426 51.288Z" fill="#C87FD3"/>
</svg>
